<svg width="398" height="690" viewBox="0 0 398 690" fill="none" xmlns="http://www.w3.org/2000/svg">
<path d="M105.658 482.931C146.053 482.931 58.1187 512.586 58.1187 549.169C58.1187 585.751 146.053 615.407 105.658 615.407C65.2636 615.407 -1.2963e-06 585.751 -2.89536e-06 549.169C-4.49442e-06 512.586 65.2636 482.931 105.658 482.931Z" fill="#D9D9D9" fill-opacity="0.03"/>
<path d="M105.658 161.634C146.053 161.634 58.1187 191.29 58.1187 227.872C58.1187 264.454 146.053 294.11 105.658 294.11C65.2636 294.11 -1.2963e-06 264.454 -2.89536e-06 227.872C-4.49442e-06 191.29 65.2636 161.634 105.658 161.634Z" fill="#D9D9D9" fill-opacity="0.03"/>
<path d="M0.985541 341.686C0.985537 301.291 30.6413 389.225 67.2236 389.225C103.806 389.225 133.462 301.291 133.462 341.686C133.462 382.08 103.806 447.344 67.2236 447.344C30.6413 447.344 0.985544 382.08 0.985541 341.686Z" fill="#D9D9D9" fill-opacity="0.03"/>
<path d="M0.985541 20.3887C0.985537 -20.0059 30.6413 67.9282 67.2236 67.9282C103.806 67.9282 133.462 -20.0059 133.462 20.3887C133.462 60.7832 103.806 126.047 67.2236 126.047C30.6413 126.047 0.985544 60.7833 0.985541 20.3887Z" fill="#D9D9D9" fill-opacity="0.03"/>
<path d="M0.985541 665.454C0.985537 625.059 30.6413 712.993 67.2236 712.993C103.806 712.993 133.462 625.059 133.462 665.454C133.462 705.848 103.806 771.112 67.2236 771.112C30.6413 771.112 0.985544 705.848 0.985541 665.454Z" fill="#D9D9D9" fill-opacity="0.03"/>
<path d="M151.748 502.334C151.748 461.939 181.404 549.873 217.986 549.873C254.568 549.873 284.224 461.939 284.224 502.334C284.224 542.729 254.568 607.992 217.986 607.992C181.404 607.992 151.748 542.729 151.748 502.334Z" fill="#D9D9D9" fill-opacity="0.03"/>
<path d="M151.748 181.037C151.748 140.643 181.404 228.577 217.986 228.577C254.568 228.577 284.224 140.643 284.224 181.037C284.224 221.432 254.568 286.695 217.986 286.695C181.404 286.695 151.748 221.432 151.748 181.037Z" fill="#D9D9D9" fill-opacity="0.03"/>
<path d="M178.566 453.773C138.171 453.773 226.105 424.117 226.105 387.534C226.105 350.952 138.171 321.296 178.566 321.296C218.96 321.296 284.224 350.952 284.224 387.534C284.224 424.117 218.961 453.773 178.566 453.773Z" fill="#D9D9D9" fill-opacity="0.03"/>
<path d="M178.566 132.476C138.171 132.476 226.105 102.82 226.105 66.2381C226.105 29.6558 138.171 1.91525e-05 178.566 1.38554e-05C218.96 8.55829e-06 284.224 29.6558 284.224 66.2381C284.224 102.82 218.961 132.476 178.566 132.476Z" fill="#D9D9D9" fill-opacity="0.03"/>
<path d="M178.566 777.541C138.171 777.541 226.105 747.885 226.105 711.303C226.105 674.721 138.171 645.065 178.566 645.065C218.96 645.065 284.224 674.721 284.224 711.303C284.224 747.885 218.961 777.541 178.566 777.541Z" fill="#D9D9D9" fill-opacity="0.03"/>
<path d="M451.301 597.489C451.301 637.883 421.646 549.949 385.063 549.949C348.481 549.949 318.825 637.883 318.825 597.489C318.825 557.094 348.481 491.831 385.063 491.831C421.646 491.831 451.301 557.094 451.301 597.489Z" fill="#D9D9D9" fill-opacity="0.03"/>
<path d="M451.301 276.192C451.301 316.587 421.646 228.653 385.063 228.653C348.481 228.653 318.825 316.587 318.825 276.192C318.825 235.798 348.481 170.534 385.063 170.534C421.646 170.534 451.301 235.798 451.301 276.192Z" fill="#D9D9D9" fill-opacity="0.03"/>
<path d="M424.483 322.282C464.878 322.282 376.944 351.938 376.944 388.52C376.944 425.103 464.878 454.758 424.483 454.758C384.089 454.758 318.825 425.103 318.825 388.52C318.825 351.938 384.089 322.282 424.483 322.282Z" fill="#D9D9D9" fill-opacity="0.03"/>
<path d="M424.483 0.985301C464.878 0.985299 376.944 30.6411 376.944 67.2234C376.944 103.806 464.878 133.461 424.483 133.461C384.089 133.461 318.825 103.806 318.825 67.2234C318.825 30.6411 384.089 0.985303 424.483 0.985301Z" fill="#D9D9D9" fill-opacity="0.03"/>
<path d="M424.483 646.05C464.878 646.05 376.944 675.706 376.944 712.288C376.944 748.871 464.878 778.526 424.483 778.526C384.089 778.526 318.825 748.871 318.825 712.288C318.825 675.706 384.089 646.05 424.483 646.05Z" fill="#D9D9D9" fill-opacity="0.03"/>
</svg>
