<svg width="295" height="55" viewBox="0 0 295 55" fill="none" xmlns="http://www.w3.org/2000/svg">
<path d="M59.1472 48.1737C59.1472 66.2089 45.9067 26.9485 29.5736 26.9485C13.2406 26.9485 0 66.2089 0 48.1737C0 30.1386 13.2406 1 29.5736 1C45.9067 1 59.1472 30.1386 59.1472 48.1737Z" fill="#F5F5F5"/>
<path d="M69.512 29L78.248 6.6H82.152L90.824 29H86.504L81.704 16.264C81.5973 16.008 81.448 15.6027 81.256 15.048C81.0853 14.4933 80.8933 13.896 80.68 13.256C80.4667 12.5947 80.2747 11.9867 80.104 11.432C79.9333 10.856 79.8053 10.44 79.72 10.184L80.52 10.152C80.392 10.5787 80.2427 11.0587 80.072 11.592C79.9013 12.1253 79.72 12.68 79.528 13.256C79.336 13.832 79.144 14.3867 78.952 14.92C78.7813 15.4533 78.6213 15.9333 78.472 16.36L73.672 29H69.512ZM73.48 23.88L74.92 20.264H85.128L86.664 23.88H73.48ZM94.3518 29V6.6H98.2878L106.448 19.88L104.144 19.848L112.4 6.6H116.144V29H112.016V20.584C112.016 18.664 112.058 16.936 112.144 15.4C112.25 13.864 112.421 12.3387 112.656 10.824L113.168 12.2L106.224 22.92H104.112L97.3918 12.296L97.8398 10.824C98.0744 12.2533 98.2344 13.7253 98.3198 15.24C98.4264 16.7333 98.4798 18.5147 98.4798 20.584V29H94.3518ZM122.164 29V6.6H131.156C132.778 6.6 134.239 6.86667 135.54 7.4C136.863 7.93333 137.994 8.70133 138.932 9.704C139.892 10.7067 140.618 11.8907 141.108 13.256C141.62 14.6213 141.876 16.136 141.876 17.8C141.876 19.464 141.62 20.9893 141.108 22.376C140.618 23.7413 139.903 24.9253 138.964 25.928C138.026 26.9093 136.895 27.6667 135.572 28.2C134.25 28.7333 132.778 29 131.156 29H122.164ZM126.324 25.768L126.004 25.16H130.996C132.042 25.16 132.97 24.9893 133.78 24.648C134.612 24.3067 135.316 23.816 135.892 23.176C136.468 22.536 136.906 21.768 137.204 20.872C137.503 19.9547 137.652 18.9307 137.652 17.8C137.652 16.6693 137.503 15.656 137.204 14.76C136.906 13.8427 136.458 13.064 135.86 12.424C135.284 11.784 134.591 11.2933 133.78 10.952C132.97 10.6107 132.042 10.44 130.996 10.44H125.908L126.324 9.896V25.768ZM146.383 29V6.6H161.039V10.376H150.479V25.224H161.167V29H146.383ZM148.303 19.4V15.688H159.407V19.4H148.303ZM75.896 51.32C74.776 51.32 73.7467 51.048 72.808 50.504C71.8693 49.9493 71.1227 49.192 70.568 48.232C70.024 47.2613 69.752 46.1733 69.752 44.968C69.752 43.8053 70.0347 42.744 70.6 41.784C71.176 40.824 71.9387 40.0667 72.888 39.512C73.848 38.9573 74.8667 38.68 75.944 38.68C76.6907 38.68 77.2827 38.7493 77.72 38.888C78.1573 39.016 78.664 39.2453 79.24 39.576V40.168C78.696 39.7947 78.1893 39.5333 77.72 39.384C77.2613 39.224 76.6853 39.144 75.992 39.144C74.936 39.144 73.9707 39.416 73.096 39.96C72.232 40.4933 71.544 41.2133 71.032 42.12C70.5307 43.016 70.28 43.9813 70.28 45.016C70.28 46.0613 70.536 47.032 71.048 47.928C71.56 48.824 72.2373 49.5387 73.08 50.072C73.9333 50.5947 74.8507 50.856 75.832 50.856C76.536 50.856 77.1493 50.776 77.672 50.616C78.1947 50.4453 78.7173 50.184 79.24 49.832V50.424C78.728 50.7333 78.2 50.9573 77.656 51.096C77.1227 51.2453 76.536 51.32 75.896 51.32ZM84.3695 51.256C83.6442 51.256 82.9882 51.08 82.4015 50.728C81.8148 50.3653 81.3562 49.8907 81.0255 49.304C80.6948 48.7067 80.5295 48.0613 80.5295 47.368C80.5295 46.6853 80.6948 46.0507 81.0255 45.464C81.3668 44.8773 81.8255 44.4133 82.4015 44.072C82.9882 43.72 83.6388 43.544 84.3535 43.544C85.0575 43.544 85.6975 43.72 86.2735 44.072C86.8602 44.4133 87.3188 44.8773 87.6495 45.464C87.9802 46.0507 88.1455 46.6853 88.1455 47.368C88.1455 48.0827 87.9855 48.7387 87.6655 49.336C87.3455 49.9227 86.8975 50.392 86.3215 50.744C85.7562 51.0853 85.1055 51.256 84.3695 51.256ZM84.3695 50.808C84.9775 50.808 85.5322 50.6533 86.0335 50.344C86.5348 50.0347 86.9242 49.624 87.2015 49.112C87.4895 48.5893 87.6335 48.0187 87.6335 47.4C87.6335 46.792 87.4895 46.2267 87.2015 45.704C86.9135 45.1813 86.5188 44.7653 86.0175 44.456C85.5162 44.1467 84.9615 43.992 84.3535 43.992C83.7455 43.992 83.1855 44.152 82.6735 44.472C82.1722 44.7813 81.7722 45.1973 81.4735 45.72C81.1855 46.2427 81.0415 46.808 81.0415 47.416C81.0415 48.024 81.1855 48.5893 81.4735 49.112C81.7722 49.624 82.1722 50.0347 82.6735 50.344C83.1855 50.6533 83.7508 50.808 84.3695 50.808ZM89.5861 43.8H90.0981V45.4C90.3328 44.8667 90.7328 44.44 91.2981 44.12C91.8635 43.7893 92.4875 43.624 93.1701 43.624C94.0555 43.624 94.7541 43.9067 95.2661 44.472C95.7888 45.0267 96.0501 45.8053 96.0501 46.808V51H95.5381V46.808C95.5381 45.944 95.3248 45.272 94.8981 44.792C94.4821 44.312 93.8955 44.072 93.1381 44.072C92.5835 44.072 92.0715 44.2 91.6021 44.456C91.1435 44.7013 90.7755 45.0427 90.4981 45.48C90.2315 45.9173 90.0981 46.4133 90.0981 46.968V51H89.5861V43.8ZM99.8145 51.176C99.3025 51.176 98.8492 51.0907 98.4545 50.92C98.0598 50.7387 97.7772 50.5093 97.6065 50.232V49.384C97.8092 49.8427 98.0865 50.184 98.4385 50.408C98.7905 50.6213 99.2385 50.728 99.7825 50.728C100.305 50.728 100.727 50.568 101.047 50.248C101.367 49.9173 101.527 49.496 101.527 48.984C101.527 48.5467 101.436 48.2107 101.255 47.976C101.073 47.7307 100.78 47.4853 100.375 47.24L99.7665 46.888C99.3292 46.6213 98.9985 46.4133 98.7745 46.264C98.5612 46.104 98.3905 45.928 98.2625 45.736C98.1345 45.5333 98.0705 45.2987 98.0705 45.032C98.0705 44.6053 98.2198 44.264 98.5185 44.008C98.8172 43.752 99.2065 43.624 99.6865 43.624C100.273 43.624 100.764 43.7573 101.159 44.024V44.728C100.828 44.2907 100.353 44.072 99.7345 44.072C99.3932 44.072 99.1158 44.1573 98.9025 44.328C98.6892 44.4987 98.5825 44.7173 98.5825 44.984C98.5825 45.2187 98.6465 45.4267 98.7745 45.608C98.9025 45.7787 99.0785 45.9387 99.3025 46.088C99.5372 46.2373 99.9212 46.4613 100.455 46.76C100.999 47.0693 101.399 47.3893 101.655 47.72C101.911 48.04 102.039 48.4613 102.039 48.984C102.039 49.6453 101.82 50.1787 101.383 50.584C100.956 50.9787 100.433 51.176 99.8145 51.176ZM106.801 51.176C105.788 51.176 105.004 50.8987 104.449 50.344C103.905 49.7893 103.633 49.0053 103.633 47.992V43.8H104.145V47.992C104.145 48.8667 104.374 49.544 104.833 50.024C105.302 50.4933 105.958 50.728 106.801 50.728C107.313 50.728 107.782 50.616 108.209 50.392C108.636 50.1573 108.972 49.832 109.217 49.416C109.462 49 109.585 48.5253 109.585 47.992V43.8H110.097V51H109.585V49.656C109.34 50.104 108.972 50.472 108.481 50.76C107.99 51.0373 107.43 51.176 106.801 51.176ZM114.853 51.144C114.352 51.144 113.893 51.032 113.477 50.808C113.061 50.5733 112.731 50.248 112.485 49.832C112.24 49.416 112.117 48.952 112.117 48.44V39H112.629V48.44C112.629 48.8667 112.725 49.2507 112.917 49.592C113.12 49.9333 113.392 50.2053 113.733 50.408C114.075 50.6 114.448 50.696 114.853 50.696V51.144ZM119.084 51.096C118.295 51.096 117.639 50.856 117.116 50.376C116.604 49.896 116.348 49.2347 116.348 48.392V40.904H116.86V43.8H119.068V44.248H116.86V48.392C116.86 49.096 117.068 49.6507 117.484 50.056C117.911 50.4507 118.444 50.648 119.084 50.648V51.096ZM121.054 42.152C120.905 42.152 120.771 42.0987 120.654 41.992C120.547 41.8853 120.494 41.752 120.494 41.592C120.494 41.4427 120.547 41.3147 120.654 41.208C120.771 41.1013 120.905 41.048 121.054 41.048C121.203 41.048 121.331 41.1013 121.438 41.208C121.555 41.3147 121.614 41.4427 121.614 41.592C121.614 41.752 121.555 41.8853 121.438 41.992C121.331 42.0987 121.203 42.152 121.054 42.152ZM120.798 43.8H121.31V51H120.798V43.8ZM123.696 43.8H124.208V45.4C124.442 44.8667 124.842 44.44 125.408 44.12C125.973 43.7893 126.597 43.624 127.28 43.624C128.165 43.624 128.864 43.9067 129.376 44.472C129.898 45.0267 130.16 45.8053 130.16 46.808V51H129.648V46.808C129.648 45.944 129.434 45.272 129.008 44.792C128.592 44.312 128.005 44.072 127.248 44.072C126.693 44.072 126.181 44.2 125.712 44.456C125.253 44.7013 124.885 45.0427 124.608 45.48C124.341 45.9173 124.208 46.4133 124.208 46.968V51H123.696V43.8ZM135.652 54.328C135.044 54.328 134.452 54.1893 133.876 53.912C133.3 53.6347 132.852 53.272 132.532 52.824V52.088C132.809 52.6 133.241 53.0267 133.828 53.368C134.425 53.7093 135.033 53.88 135.652 53.88C136.676 53.88 137.465 53.576 138.02 52.968C138.575 52.3707 138.852 51.4907 138.852 50.328V49.256C138.564 49.832 138.111 50.3013 137.492 50.664C136.884 51.016 136.244 51.192 135.572 51.192C134.889 51.192 134.255 51.0213 133.668 50.68C133.081 50.3387 132.617 49.88 132.276 49.304C131.935 48.7173 131.764 48.088 131.764 47.416C131.764 46.744 131.935 46.12 132.276 45.544C132.617 44.9573 133.081 44.4933 133.668 44.152C134.255 43.8107 134.889 43.64 135.572 43.64C136.276 43.64 136.927 43.816 137.524 44.168C138.121 44.52 138.564 44.9947 138.852 45.592V43.8H139.364V50.328C139.364 51.64 139.044 52.632 138.404 53.304C137.775 53.9867 136.857 54.328 135.652 54.328ZM135.604 50.744C136.191 50.744 136.735 50.5947 137.236 50.296C137.737 49.9867 138.132 49.5813 138.42 49.08C138.719 48.568 138.868 48.0133 138.868 47.416C138.868 46.8187 138.719 46.2693 138.42 45.768C138.132 45.256 137.737 44.8507 137.236 44.552C136.735 44.2427 136.191 44.088 135.604 44.088C135.007 44.088 134.452 44.2427 133.94 44.552C133.439 44.8507 133.033 45.256 132.724 45.768C132.425 46.2693 132.276 46.8187 132.276 47.416C132.276 48.0133 132.425 48.568 132.724 49.08C133.033 49.5813 133.439 49.9867 133.94 50.296C134.452 50.5947 135.007 50.744 135.604 50.744ZM156.387 51H155.827L153.555 46.424H147.187L144.963 51H144.403L150.387 38.712L156.387 51ZM153.363 45.96L150.355 39.864L147.411 45.96H153.363ZM157.914 43.8H158.426V45.464C158.64 44.9413 158.949 44.5307 159.354 44.232C159.77 43.9333 160.24 43.784 160.762 43.784C161.093 43.784 161.429 43.8533 161.77 43.992V44.584C161.461 44.3493 161.114 44.232 160.73 44.232C160.346 44.232 159.973 44.3493 159.61 44.584C159.258 44.8187 158.97 45.1333 158.746 45.528C158.533 45.9227 158.426 46.344 158.426 46.792V51H157.914V43.8ZM165.947 51.208C165.254 51.208 164.614 51.0427 164.027 50.712C163.451 50.3813 162.992 49.928 162.651 49.352C162.31 48.776 162.139 48.1253 162.139 47.4C162.139 46.728 162.31 46.1093 162.651 45.544C162.992 44.968 163.456 44.5093 164.043 44.168C164.64 43.8267 165.296 43.656 166.011 43.656C166.608 43.656 167.12 43.752 167.547 43.944C167.974 44.136 168.39 44.4347 168.795 44.84V45.704C168.443 45.1813 168.048 44.7867 167.611 44.52C167.184 44.2427 166.651 44.104 166.011 44.104C165.424 44.104 164.87 44.2587 164.347 44.568C163.835 44.8667 163.424 45.272 163.115 45.784C162.806 46.296 162.651 46.8453 162.651 47.432C162.651 48.072 162.8 48.648 163.099 49.16C163.398 49.6613 163.798 50.056 164.299 50.344C164.811 50.6213 165.36 50.76 165.947 50.76C167.142 50.76 168.091 50.2213 168.795 49.144V50.008C168.411 50.4133 167.984 50.7173 167.515 50.92C167.056 51.112 166.534 51.208 165.947 51.208ZM170.211 39H170.723V45.288C170.947 44.808 171.326 44.4133 171.859 44.104C172.403 43.784 172.952 43.624 173.507 43.624C174.52 43.624 175.299 43.9013 175.843 44.456C176.398 45.0107 176.675 45.7947 176.675 46.808V51H176.163V46.808C176.163 45.9333 175.928 45.2613 175.459 44.792C175 44.312 174.35 44.072 173.507 44.072C172.995 44.072 172.526 44.1947 172.099 44.44C171.672 44.6747 171.336 45.0053 171.091 45.432C170.846 45.848 170.723 46.3067 170.723 46.808V51H170.211V39ZM179.32 42.152C179.17 42.152 179.037 42.0987 178.92 41.992C178.813 41.8853 178.76 41.752 178.76 41.592C178.76 41.4427 178.813 41.3147 178.92 41.208C179.037 41.1013 179.17 41.048 179.32 41.048C179.469 41.048 179.597 41.1013 179.704 41.208C179.821 41.3147 179.88 41.4427 179.88 41.592C179.88 41.752 179.821 41.8853 179.704 41.992C179.597 42.0987 179.469 42.152 179.32 42.152ZM179.064 43.8H179.576V51H179.064V43.8ZM184.537 51.096C183.748 51.096 183.092 50.856 182.569 50.376C182.057 49.896 181.801 49.2347 181.801 48.392V40.904H182.313V43.8H184.521V44.248H182.313V48.392C182.313 49.096 182.521 49.6507 182.937 50.056C183.364 50.4507 183.897 50.648 184.537 50.648V51.096ZM189.387 50.744C189.942 50.744 190.47 50.6 190.971 50.312C191.472 50.024 191.888 49.6293 192.219 49.128V49.944C191.824 50.3813 191.392 50.7013 190.923 50.904C190.454 51.096 189.92 51.192 189.323 51.192C188.662 51.192 188.038 51.016 187.451 50.664C186.875 50.312 186.411 49.8427 186.059 49.256C185.718 48.6693 185.547 48.0453 185.547 47.384C185.547 46.6693 185.718 46.0293 186.059 45.464C186.4 44.888 186.864 44.44 187.451 44.12C188.048 43.8 188.71 43.64 189.435 43.64C190.544 43.64 191.488 44.0773 192.267 44.952L187.243 49.912C187.595 50.2 187.936 50.4133 188.267 50.552C188.598 50.68 188.971 50.744 189.387 50.744ZM186.059 47.336C186.059 48.2213 186.352 48.9787 186.939 49.608L191.627 44.952C191.275 44.6427 190.934 44.424 190.603 44.296C190.272 44.1573 189.878 44.088 189.419 44.088C188.768 44.088 188.187 44.232 187.675 44.52C187.174 44.7973 186.779 45.1813 186.491 45.672C186.203 46.1627 186.059 46.7173 186.059 47.336ZM197.259 51.208C196.566 51.208 195.926 51.0427 195.339 50.712C194.763 50.3813 194.305 49.928 193.963 49.352C193.622 48.776 193.451 48.1253 193.451 47.4C193.451 46.728 193.622 46.1093 193.963 45.544C194.305 44.968 194.769 44.5093 195.355 44.168C195.953 43.8267 196.609 43.656 197.323 43.656C197.921 43.656 198.433 43.752 198.859 43.944C199.286 44.136 199.702 44.4347 200.107 44.84V45.704C199.755 45.1813 199.361 44.7867 198.923 44.52C198.497 44.2427 197.963 44.104 197.323 44.104C196.737 44.104 196.182 44.2587 195.659 44.568C195.147 44.8667 194.737 45.272 194.427 45.784C194.118 46.296 193.963 46.8453 193.963 47.432C193.963 48.072 194.113 48.648 194.411 49.16C194.71 49.6613 195.11 50.056 195.611 50.344C196.123 50.6213 196.673 50.76 197.259 50.76C198.454 50.76 199.403 50.2213 200.107 49.144V50.008C199.723 50.4133 199.297 50.7173 198.827 50.92C198.369 51.112 197.846 51.208 197.259 51.208ZM204.1 51.096C203.31 51.096 202.654 50.856 202.132 50.376C201.62 49.896 201.364 49.2347 201.364 48.392V40.904H201.876V43.8H204.084V44.248H201.876V48.392C201.876 49.096 202.084 49.6507 202.5 50.056C202.926 50.4507 203.46 50.648 204.1 50.648V51.096ZM207.19 51.176C206.678 51.176 206.224 51.0907 205.83 50.92C205.435 50.7387 205.152 50.5093 204.982 50.232V49.384C205.184 49.8427 205.462 50.184 205.814 50.408C206.166 50.6213 206.614 50.728 207.158 50.728C207.68 50.728 208.102 50.568 208.422 50.248C208.742 49.9173 208.902 49.496 208.902 48.984C208.902 48.5467 208.811 48.2107 208.63 47.976C208.448 47.7307 208.155 47.4853 207.75 47.24L207.142 46.888C206.704 46.6213 206.374 46.4133 206.15 46.264C205.936 46.104 205.766 45.928 205.638 45.736C205.51 45.5333 205.446 45.2987 205.446 45.032C205.446 44.6053 205.595 44.264 205.894 44.008C206.192 43.752 206.582 43.624 207.062 43.624C207.648 43.624 208.139 43.7573 208.534 44.024V44.728C208.203 44.2907 207.728 44.072 207.11 44.072C206.768 44.072 206.491 44.1573 206.278 44.328C206.064 44.4987 205.958 44.7173 205.958 44.984C205.958 45.2187 206.022 45.4267 206.15 45.608C206.278 45.7787 206.454 45.9387 206.678 46.088C206.912 46.2373 207.296 46.4613 207.83 46.76C208.374 47.0693 208.774 47.3893 209.03 47.72C209.286 48.04 209.414 48.4613 209.414 48.984C209.414 49.6453 209.195 50.1787 208.758 50.584C208.331 50.9787 207.808 51.176 207.19 51.176ZM217.932 51.064C217.249 51.064 216.636 50.9467 216.092 50.712C215.558 50.4773 215.137 50.1573 214.828 49.752C214.529 49.336 214.38 48.8507 214.38 48.296C214.38 47.8693 214.476 47.464 214.668 47.08C214.87 46.696 215.196 46.312 215.644 45.928C216.102 45.5333 216.716 45.112 217.484 44.664C218.188 44.248 218.737 43.8907 219.132 43.592C219.537 43.2933 219.82 43.0053 219.98 42.728C220.15 42.4507 220.236 42.1413 220.236 41.8C220.236 41.32 220.076 40.9307 219.756 40.632C219.436 40.3333 218.972 40.184 218.364 40.184C217.734 40.184 217.244 40.3493 216.892 40.68C216.54 41 216.364 41.4267 216.364 41.96C216.364 42.2053 216.401 42.44 216.476 42.664C216.55 42.888 216.684 43.1387 216.876 43.416C217.078 43.6933 217.361 44.0293 217.724 44.424L223.676 50.808L223.324 51.16L217.276 44.648C216.902 44.2427 216.609 43.896 216.396 43.608C216.193 43.3093 216.049 43.032 215.964 42.776C215.889 42.5093 215.852 42.2373 215.852 41.96C215.852 41.512 215.953 41.1227 216.156 40.792C216.369 40.4613 216.662 40.2053 217.036 40.024C217.42 39.832 217.862 39.736 218.364 39.736C218.844 39.736 219.26 39.8213 219.612 39.992C219.964 40.152 220.236 40.3867 220.428 40.696C220.62 41.0053 220.716 41.3733 220.716 41.8C220.716 42.184 220.625 42.536 220.444 42.856C220.262 43.176 219.958 43.5067 219.532 43.848C219.105 44.1893 218.518 44.5787 217.772 45.016C217.036 45.4533 216.454 45.848 216.028 46.2C215.612 46.5413 215.318 46.8773 215.148 47.208C214.988 47.528 214.908 47.88 214.908 48.264C214.908 48.7333 215.036 49.1493 215.292 49.512C215.548 49.864 215.905 50.136 216.364 50.328C216.822 50.52 217.35 50.616 217.948 50.616C218.737 50.616 219.43 50.456 220.028 50.136C220.636 49.816 221.142 49.336 221.548 48.696C221.964 48.0453 222.262 47.2293 222.444 46.248L222.892 46.36C222.689 47.4267 222.358 48.3067 221.9 49C221.452 49.6933 220.892 50.2107 220.22 50.552C219.558 50.8933 218.796 51.064 217.932 51.064ZM228.577 39H232.881V39.464H229.105V45.992H232.257V46.456H229.105V50.536H232.881V51H228.577V39ZM234.305 43.8H234.817V45.4C235.052 44.8667 235.452 44.44 236.017 44.12C236.582 43.7893 237.206 43.624 237.889 43.624C238.774 43.624 239.473 43.9067 239.985 44.472C240.508 45.0267 240.769 45.8053 240.769 46.808V51H240.257V46.808C240.257 45.944 240.044 45.272 239.617 44.792C239.201 44.312 238.614 44.072 237.857 44.072C237.302 44.072 236.79 44.2 236.321 44.456C235.862 44.7013 235.494 45.0427 235.217 45.48C234.95 45.9173 234.817 46.4133 234.817 46.968V51H234.305V43.8ZM246.261 54.328C245.653 54.328 245.061 54.1893 244.485 53.912C243.909 53.6347 243.461 53.272 243.141 52.824V52.088C243.419 52.6 243.851 53.0267 244.437 53.368C245.035 53.7093 245.643 53.88 246.261 53.88C247.285 53.88 248.075 53.576 248.629 52.968C249.184 52.3707 249.461 51.4907 249.461 50.328V49.256C249.173 49.832 248.72 50.3013 248.101 50.664C247.493 51.016 246.853 51.192 246.181 51.192C245.499 51.192 244.864 51.0213 244.277 50.68C243.691 50.3387 243.227 49.88 242.885 49.304C242.544 48.7173 242.373 48.088 242.373 47.416C242.373 46.744 242.544 46.12 242.885 45.544C243.227 44.9573 243.691 44.4933 244.277 44.152C244.864 43.8107 245.499 43.64 246.181 43.64C246.885 43.64 247.536 43.816 248.133 44.168C248.731 44.52 249.173 44.9947 249.461 45.592V43.8H249.973V50.328C249.973 51.64 249.653 52.632 249.013 53.304C248.384 53.9867 247.467 54.328 246.261 54.328ZM246.213 50.744C246.8 50.744 247.344 50.5947 247.845 50.296C248.347 49.9867 248.741 49.5813 249.029 49.08C249.328 48.568 249.477 48.0133 249.477 47.416C249.477 46.8187 249.328 46.2693 249.029 45.768C248.741 45.256 248.347 44.8507 247.845 44.552C247.344 44.2427 246.8 44.088 246.213 44.088C245.616 44.088 245.061 44.2427 244.549 44.552C244.048 44.8507 243.643 45.256 243.333 45.768C243.035 46.2693 242.885 46.8187 242.885 47.416C242.885 48.0133 243.035 48.568 243.333 49.08C243.643 49.5813 244.048 49.9867 244.549 50.296C245.061 50.5947 245.616 50.744 246.213 50.744ZM252.616 42.152C252.467 42.152 252.334 42.0987 252.216 41.992C252.11 41.8853 252.056 41.752 252.056 41.592C252.056 41.4427 252.11 41.3147 252.216 41.208C252.334 41.1013 252.467 41.048 252.616 41.048C252.766 41.048 252.894 41.1013 253 41.208C253.118 41.3147 253.176 41.4427 253.176 41.592C253.176 41.752 253.118 41.8853 253 41.992C252.894 42.0987 252.766 42.152 252.616 42.152ZM252.36 43.8H252.872V51H252.36V43.8ZM255.258 43.8H255.77V45.4C256.005 44.8667 256.405 44.44 256.97 44.12C257.535 43.7893 258.159 43.624 258.842 43.624C259.727 43.624 260.426 43.9067 260.938 44.472C261.461 45.0267 261.722 45.8053 261.722 46.808V51H261.21V46.808C261.21 45.944 260.997 45.272 260.57 44.792C260.154 44.312 259.567 44.072 258.81 44.072C258.255 44.072 257.743 44.2 257.274 44.456C256.815 44.7013 256.447 45.0427 256.17 45.48C255.903 45.9173 255.77 46.4133 255.77 46.968V51H255.258V43.8ZM267.246 50.744C267.801 50.744 268.329 50.6 268.83 50.312C269.332 50.024 269.748 49.6293 270.078 49.128V49.944C269.684 50.3813 269.252 50.7013 268.782 50.904C268.313 51.096 267.78 51.192 267.182 51.192C266.521 51.192 265.897 51.016 265.31 50.664C264.734 50.312 264.27 49.8427 263.918 49.256C263.577 48.6693 263.406 48.0453 263.406 47.384C263.406 46.6693 263.577 46.0293 263.918 45.464C264.26 44.888 264.724 44.44 265.31 44.12C265.908 43.8 266.569 43.64 267.294 43.64C268.404 43.64 269.348 44.0773 270.126 44.952L265.102 49.912C265.454 50.2 265.796 50.4133 266.126 50.552C266.457 50.68 266.83 50.744 267.246 50.744ZM263.918 47.336C263.918 48.2213 264.212 48.9787 264.798 49.608L269.486 44.952C269.134 44.6427 268.793 44.424 268.462 44.296C268.132 44.1573 267.737 44.088 267.278 44.088C266.628 44.088 266.046 44.232 265.534 44.52C265.033 44.7973 264.638 45.1813 264.35 45.672C264.062 46.1627 263.918 46.7173 263.918 47.336ZM275.231 50.744C275.785 50.744 276.313 50.6 276.815 50.312C277.316 50.024 277.732 49.6293 278.063 49.128V49.944C277.668 50.3813 277.236 50.7013 276.767 50.904C276.297 51.096 275.764 51.192 275.167 51.192C274.505 51.192 273.881 51.016 273.295 50.664C272.719 50.312 272.255 49.8427 271.903 49.256C271.561 48.6693 271.391 48.0453 271.391 47.384C271.391 46.6693 271.561 46.0293 271.903 45.464C272.244 44.888 272.708 44.44 273.295 44.12C273.892 43.8 274.553 43.64 275.279 43.64C276.388 43.64 277.332 44.0773 278.111 44.952L273.087 49.912C273.439 50.2 273.78 50.4133 274.111 50.552C274.441 50.68 274.815 50.744 275.231 50.744ZM271.903 47.336C271.903 48.2213 272.196 48.9787 272.783 49.608L277.471 44.952C277.119 44.6427 276.777 44.424 276.447 44.296C276.116 44.1573 275.721 44.088 275.263 44.088C274.612 44.088 274.031 44.232 273.519 44.52C273.017 44.7973 272.623 45.1813 272.335 45.672C272.047 46.1627 271.903 46.7173 271.903 47.336ZM279.711 43.8H280.223V45.464C280.436 44.9413 280.746 44.5307 281.151 44.232C281.567 43.9333 282.036 43.784 282.559 43.784C282.89 43.784 283.226 43.8533 283.567 43.992V44.584C283.258 44.3493 282.911 44.232 282.527 44.232C282.143 44.232 281.77 44.3493 281.407 44.584C281.055 44.8187 280.767 45.1333 280.543 45.528C280.33 45.9227 280.223 46.344 280.223 46.792V51H279.711V43.8ZM286.58 51.176C286.068 51.176 285.615 51.0907 285.22 50.92C284.825 50.7387 284.543 50.5093 284.372 50.232V49.384C284.575 49.8427 284.852 50.184 285.204 50.408C285.556 50.6213 286.004 50.728 286.548 50.728C287.071 50.728 287.492 50.568 287.812 50.248C288.132 49.9173 288.292 49.496 288.292 48.984C288.292 48.5467 288.201 48.2107 288.02 47.976C287.839 47.7307 287.545 47.4853 287.14 47.24L286.532 46.888C286.095 46.6213 285.764 46.4133 285.54 46.264C285.327 46.104 285.156 45.928 285.028 45.736C284.9 45.5333 284.836 45.2987 284.836 45.032C284.836 44.6053 284.985 44.264 285.284 44.008C285.583 43.752 285.972 43.624 286.452 43.624C287.039 43.624 287.529 43.7573 287.924 44.024V44.728C287.593 44.2907 287.119 44.072 286.5 44.072C286.159 44.072 285.881 44.1573 285.668 44.328C285.455 44.4987 285.348 44.7173 285.348 44.984C285.348 45.2187 285.412 45.4267 285.54 45.608C285.668 45.7787 285.844 45.9387 286.068 46.088C286.303 46.2373 286.687 46.4613 287.22 46.76C287.764 47.0693 288.164 47.3893 288.42 47.72C288.676 48.04 288.804 48.4613 288.804 48.984C288.804 49.6453 288.585 50.1787 288.148 50.584C287.721 50.9787 287.199 51.176 286.58 51.176Z" fill="#F5F5F5"/>
</svg>
