<svg width="24" height="277" viewBox="0 0 24 277" fill="none" xmlns="http://www.w3.org/2000/svg">
<path d="M12.25 256C10.0628 256.003 7.96584 256.873 6.41923 258.419C4.87261 259.966 4.00259 262.063 4.00001 264.25C3.99739 266.037 4.58124 267.776 5.66201 269.2C5.66201 269.2 5.88701 269.496 5.92376 269.539L12.25 277L18.5793 269.535C18.6123 269.496 18.838 269.2 18.838 269.2L18.8388 269.198C19.919 267.775 20.5026 266.037 20.5 264.25C20.4974 262.063 19.6274 259.966 18.0808 258.419C16.5342 256.873 14.4373 256.003 12.25 256ZM12.25 267.25C11.6567 267.25 11.0766 267.074 10.5833 266.744C10.09 266.415 9.70543 265.946 9.47837 265.398C9.25131 264.85 9.1919 264.247 9.30765 263.665C9.42341 263.083 9.70913 262.548 10.1287 262.129C10.5482 261.709 11.0828 261.423 11.6647 261.308C12.2467 261.192 12.8499 261.251 13.3981 261.478C13.9462 261.705 14.4148 262.09 14.7444 262.583C15.0741 263.077 15.25 263.657 15.25 264.25C15.249 265.045 14.9326 265.808 14.3702 266.37C13.8078 266.933 13.0454 267.249 12.25 267.25Z" fill="#BFBEBE"/>
<path d="M20 10.999H22C22 5.869 18.127 2 12.99 2V4C17.052 4 20 6.943 20 10.999Z" fill="#BFBEBE"/>
<path d="M13 8.00024C15.103 8.00024 16 8.89724 16 11.0002H18C18 7.77524 16.225 6.00024 13 6.00024V8.00024ZM16.422 13.4432C16.2299 13.2686 15.9774 13.1754 15.7178 13.1835C15.4583 13.1915 15.212 13.3001 15.031 13.4862L12.638 15.9472C12.062 15.8372 10.904 15.4762 9.71204 14.2872C8.52004 13.0942 8.15904 11.9332 8.05204 11.3612L10.511 8.96724C10.6975 8.78637 10.8062 8.54006 10.8142 8.28045C10.8222 8.02083 10.7289 7.76828 10.554 7.57624L6.85904 3.51324C6.68408 3.3206 6.44092 3.20374 6.18119 3.1875C5.92146 3.17125 5.66564 3.2569 5.46804 3.42624L3.29804 5.28724C3.12515 5.46075 3.02196 5.69169 3.00804 5.93624C2.99304 6.18624 2.70704 12.1082 7.29904 16.7022C11.305 20.7072 16.323 21.0002 17.705 21.0002C17.907 21.0002 18.031 20.9942 18.064 20.9922C18.3086 20.9786 18.5394 20.8749 18.712 20.7012L20.572 18.5302C20.7415 18.3328 20.8273 18.077 20.8113 17.8173C20.7952 17.5576 20.6785 17.3143 20.486 17.1392L16.422 13.4432Z" fill="#BFBEBE"/>
<path d="M22 68H2V84H22V68ZM20 72L12 77L4 72V70L12 75L20 70V72Z" fill="#BFBEBE"/>
<g clip-path="url(#clip0_179_6)">
<path d="M11.9999 136.001C9.79788 136.001 8.00088 137.798 8.00088 140C8.00088 142.202 9.79788 143.999 11.9999 143.999C14.2019 143.999 15.9989 142.202 15.9989 140C15.9989 137.798 14.2019 136.001 11.9999 136.001ZM23.9939 140C23.9939 138.344 24.0089 136.703 23.9159 135.05C23.8229 133.13 23.3849 131.426 21.9809 130.022C20.5739 128.615 18.8729 128.18 16.9529 128.087C15.2969 127.994 13.6559 128.009 12.0029 128.009C10.3469 128.009 8.70588 127.994 7.05288 128.087C5.13288 128.18 3.42888 128.618 2.02488 130.022C0.617879 131.429 0.182879 133.13 0.0898786 135.05C-0.00312138 136.706 0.0118787 138.347 0.0118787 140C0.0118787 141.653 -0.00312138 143.297 0.0898786 144.95C0.182879 146.87 0.620879 148.574 2.02488 149.978C3.43188 151.385 5.13288 151.82 7.05288 151.913C8.70888 152.006 10.3499 151.991 12.0029 151.991C13.6589 151.991 15.2999 152.006 16.9529 151.913C18.8729 151.82 20.5769 151.382 21.9809 149.978C23.3879 148.571 23.8229 146.87 23.9159 144.95C24.0119 143.297 23.9939 141.656 23.9939 140ZM11.9999 146.153C8.59488 146.153 5.84688 143.405 5.84688 140C5.84688 136.595 8.59488 133.847 11.9999 133.847C15.4049 133.847 18.1529 136.595 18.1529 140C18.1529 143.405 15.4049 146.153 11.9999 146.153ZM18.4049 135.032C17.6099 135.032 16.9679 134.39 16.9679 133.595C16.9679 132.8 17.6099 132.158 18.4049 132.158C19.1999 132.158 19.8419 132.8 19.8419 133.595C19.8421 133.784 19.8051 133.971 19.733 134.145C19.6608 134.32 19.555 134.478 19.4215 134.612C19.288 134.745 19.1295 134.851 18.9551 134.923C18.7806 134.995 18.5937 135.032 18.4049 135.032Z" fill="#BFBEBE"/>
</g>
<g clip-path="url(#clip1_179_6)">
<path fill-rule="evenodd" clip-rule="evenodd" d="M18.3839 214.779C18.7059 215.007 19.1209 215.064 19.4909 214.924C19.8609 214.783 20.1329 214.467 20.2149 214.084C21.0839 210 23.1919 199.663 23.9829 195.948C24.0429 195.668 23.9429 195.377 23.7229 195.19C23.5029 195.003 23.1979 194.949 22.9259 195.05C18.7329 196.602 5.81991 201.447 0.54191 203.4C0.20691 203.524 -0.0110904 203.846 -9.04275e-05 204.199C0.0119096 204.553 0.24991 204.86 0.59291 204.963C2.95991 205.671 6.06691 206.656 6.06691 206.656C6.06691 206.656 7.51891 211.041 8.27591 213.271C8.37091 213.551 8.58991 213.771 8.87891 213.847C9.16691 213.922 9.47491 213.843 9.68991 213.64C10.9059 212.492 12.7859 210.717 12.7859 210.717C12.7859 210.717 16.3579 213.336 18.3839 214.779ZM7.37391 206.102L9.05291 211.64L9.42591 208.133C9.42591 208.133 15.9129 202.282 19.6109 198.947C19.7189 198.849 19.7339 198.685 19.6439 198.57C19.5549 198.455 19.3909 198.428 19.2679 198.506C14.9819 201.243 7.37391 206.102 7.37391 206.102Z" fill="#BFBEBE"/>
</g>
<defs>
<clipPath id="clip0_179_6">
<rect width="24" height="24" fill="white" transform="translate(0 128)"/>
</clipPath>
<clipPath id="clip1_179_6">
<rect width="24" height="24" fill="white" transform="translate(0 192)"/>
</clipPath>
</defs>
</svg>
